# xmcd
#
# Track frame offsets:
#	150
#	13891
#	34489
#	56218
#	76491
#	93463
#	111150
#	125473
#	141802
#	160817
#	177748
#	195125
#	214342
#	228273
#
# Disc length: 3253 seconds
#
# Revision: 1
# Processed by: cddbd v1.5.2PL0 Copyright (c) Steve Scherf et al.
# Submitted via: EasyCDDAExtractor 10.5.1.1
#
DISCID=c70cb30e
DTITLE=Rune Rudberg - Fri Som En Vind [3 Cd - Cd 3]
DYEAR=2003
DGENRE=Danseband
TTITLE0=Vinger Over Europa
TTITLE1=Det Gamle Hvite Huset
TTITLE2=Ann-Kristin
TTITLE3=Kom Og Ligg Inntil Meg
TTITLE4=Dagens Morgengave
TTITLE5=Etter Stormen
TTITLE6=Stjernetango
TTITLE7=Jeg Var Så Lykkelig
TTITLE8=Takk For Livet
TTITLE9=Alle Vil Vi Gratulere
TTITLE10=Når En Storm Endrer Kursen
TTITLE11=Brygga
TTITLE12=Har Du Sovet Godt
TTITLE13=Takk Til Alle Som Drømmer
EXTD=Samleplate Vol. 3
EXTT0=
EXTT1=
EXTT2=
EXTT3=
EXTT4=
EXTT5=
EXTT6=
EXTT7=
EXTT8=
EXTT9=
EXTT10=
EXTT11=
EXTT12=
EXTT13=
PLAYORDER=
